<?xml version="1.0" standalone="no"?>
<!DOCTYPE svg PUBLIC "-//W3C//DTD SVG 20010904//EN"
 "http://www.w3.org/TR/2001/REC-SVG-20010904/DTD/svg10.dtd">
<svg version="1.0" xmlns="http://www.w3.org/2000/svg"
 width="512.000000pt" height="512.000000pt" viewBox="0 0 512.000000 512.000000"
 preserveAspectRatio="xMidYMid meet">
<metadata>
Created by potrace 1.14, written by Peter Selinger 2001-2017
</metadata>
<g transform="translate(0.000000,512.000000) scale(0.100000,-0.100000)"
fill="#000000" stroke="none">
<path d="M765 4533 c-87 -46 -95 -72 -97 -309 l-1 -193 -120 -188 c-66 -103
-152 -240 -192 -303 -40 -63 -136 -215 -214 -338 -78 -124 -141 -233 -141
-246 0 -49 34 -127 74 -170 110 -117 280 -126 404 -20 l39 33 0 -982 0 -982
-60 -1 c-83 -1 -96 -20 -97 -132 0 -75 2 -85 25 -108 l24 -24 2146 2 2147 3
18 22 c15 19 18 39 16 108 -2 102 -18 127 -86 129 -32 1 -42 5 -45 21 -2 11
-3 453 -3 982 l1 963 35 -32 c118 -103 282 -102 396 3 41 37 75 105 82 162 5
42 1 51 -101 213 -59 93 -115 181 -126 196 -10 15 -19 30 -19 33 0 3 -5 11
-10 18 -15 17 -119 179 -127 197 -3 8 -19 33 -33 55 -15 22 -79 122 -142 222
l-115 182 0 183 c0 209 -7 237 -69 284 l-37 29 -1771 2 c-1603 2 -1774 1
-1801 -14z"/>
</g>
</svg>
